<svg xmlns="http://www.w3.org/2000/svg" width="1200" height="2150" viewBox="0 0 1200 2150"><style>text{font-family:ui-monospace,SFMono-Regular,Menlo,monospace;letter-spacing:0}.title{font:700 22px system-ui,sans-serif;fill:#20262d}.label{font-size:12px;fill:#20262d}.value{font-size:11px;fill:#58616b}</style><rect width="100%" height="100%" fill="#fff"/><text x="24" y="36" class="title">Task by agent pass rate</text><text x="318" y="86" text-anchor="end" class="label">actionlint-action-pinning-lint / ello-ds-rapid</text><rect x="330" y="70" width="700" height="22" fill="#ece8df"/><rect x="330" y="70" width="700.00" height="22" fill="#167c5a"/><text x="1042" y="85" class="value">100.0%  1/1</text><text x="318" y="120" text-anchor="end" class="label">abs-stepped-slices / ello-ds-rapid</text><rect x="330" y="104" width="700" height="22" fill="#ece8df"/><rect x="330" y="104" width="700.00" height="22" fill="#167c5a"/><text x="1042" y="119" class="value">100.0%  1/1</text><text x="318" y="154" text-anchor="end" class="label">yaegi-go-embed-directives / ello-ds-rapid</text><rect x="330" y="138" width="700" height="22" fill="#ece8df"/><rect x="330" y="138" width="700.00" height="22" fill="#167c5a"/><text x="1042" y="153" class="value">100.0%  1/1</text><text x="318" y="188" text-anchor="end" class="label">dasel-html-document-format / ello-ds-rapid</text><rect x="330" y="172" width="700" height="22" fill="#ece8df"/><rect x="330" y="172" width="0.00" height="22" fill="#167c5a"/><text x="1042" y="187" class="value">0.0%  0/1</text><text x="318" y="222" text-anchor="end" class="label">cattrs-partial-structuring-recovery / ello-ds-rapid</text><rect x="330" y="206" width="700" height="22" fill="#ece8df"/><rect x="330" y="206" width="0.00" height="22" fill="#167c5a"/><text x="1042" y="221" class="value">0.0%  0/1</text><text x="318" y="256" text-anchor="end" class="label">numba-stencil-boundary-modes / ello-ds-rapid</text><rect x="330" y="240" width="700" height="22" fill="#ece8df"/><rect x="330" y="240" width="0.00" height="22" fill="#167c5a"/><text x="1042" y="255" class="value">0.0%  0/1</text><text x="318" y="290" text-anchor="end" class="label">bandit-incremental-cache-control / ello-ds-rapid</text><rect x="330" y="274" width="700" height="22" fill="#ece8df"/><rect x="330" y="274" width="0.00" height="22" fill="#167c5a"/><text x="1042" y="289" class="value">0.0%  0/1</text><text x="318" y="324" text-anchor="end" class="label">httpx-streaming-json-iteration / ello-ds-rapid</text><rect x="330" y="308" width="700" height="22" fill="#ece8df"/><rect x="330" y="308" width="700.00" height="22" fill="#167c5a"/><text x="1042" y="323" class="value">100.0%  1/1</text><text x="318" y="358" text-anchor="end" class="label">happy-dom-abort-pending-body-reads / ello-ds-rapid</text><rect x="330" y="342" width="700" height="22" fill="#ece8df"/><rect x="330" y="342" width="0.00" height="22" fill="#167c5a"/><text x="1042" y="357" class="value">0.0%  0/1</text><text x="318" y="392" text-anchor="end" class="label">dynamodb-toolbox-conditional-attribute-requirements / ello-ds-rapid</text><rect x="330" y="376" width="700" height="22" fill="#ece8df"/><rect x="330" y="376" width="700.00" height="22" fill="#167c5a"/><text x="1042" y="391" class="value">100.0%  1/1</text><text x="318" y="426" text-anchor="end" class="label">awilix-async-container-initialization / ello-ds-rapid</text><rect x="330" y="410" width="700" height="22" fill="#ece8df"/><rect x="330" y="410" width="700.00" height="22" fill="#167c5a"/><text x="1042" y="425" class="value">100.0%  1/1</text><text x="318" y="460" text-anchor="end" class="label">quill-shared-toolbar-focus / ello-ds-rapid</text><rect x="330" y="444" width="700" height="22" fill="#ece8df"/><rect x="330" y="444" width="700.00" height="22" fill="#167c5a"/><text x="1042" y="459" class="value">100.0%  1/1</text><text x="318" y="494" text-anchor="end" class="label">wasmi-trap-coredumps / ello-ds-rapid</text><rect x="330" y="478" width="700" height="22" fill="#ece8df"/><rect x="330" y="478" width="0.00" height="22" fill="#167c5a"/><text x="1042" y="493" class="value">0.0%  0/1</text><text x="318" y="528" text-anchor="end" class="label">fd-deterministic-multi-key-sorting / ello-ds-rapid</text><rect x="330" y="512" width="700" height="22" fill="#ece8df"/><rect x="330" y="512" width="700.00" height="22" fill="#167c5a"/><text x="1042" y="527" class="value">100.0%  1/1</text><text x="318" y="562" text-anchor="end" class="label">boa-hierarchical-evaluation-cancellation / ello-ds-rapid</text><rect x="330" y="546" width="700" height="22" fill="#ece8df"/><rect x="330" y="546" width="700.00" height="22" fill="#167c5a"/><text x="1042" y="561" class="value">100.0%  1/1</text><text x="318" y="596" text-anchor="end" class="label">pest-character-class-coalescing / ello-ds-rapid</text><rect x="330" y="580" width="700" height="22" fill="#ece8df"/><rect x="330" y="580" width="0.00" height="22" fill="#167c5a"/><text x="1042" y="595" class="value">0.0%  0/1</text><text x="318" y="630" text-anchor="end" class="label">yjs-map-conflict-detection / ello-ds-rapid</text><rect x="330" y="614" width="700" height="22" fill="#ece8df"/><rect x="330" y="614" width="700.00" height="22" fill="#167c5a"/><text x="1042" y="629" class="value">100.0%  1/1</text><text x="318" y="664" text-anchor="end" class="label">testem-per-launcher-reports / ello-ds-rapid</text><rect x="330" y="648" width="700" height="22" fill="#ece8df"/><rect x="330" y="648" width="700.00" height="22" fill="#167c5a"/><text x="1042" y="663" class="value">100.0%  1/1</text><text x="318" y="698" text-anchor="end" class="label">csstree-shorthand-expansion-compression / ello-ds-rapid</text><rect x="330" y="682" width="700" height="22" fill="#ece8df"/><rect x="330" y="682" width="700.00" height="22" fill="#167c5a"/><text x="1042" y="697" class="value">100.0%  1/1</text><text x="318" y="732" text-anchor="end" class="label">katex-multicolumn-array-spans / ello-ds-rapid</text><rect x="330" y="716" width="700" height="22" fill="#ece8df"/><rect x="330" y="716" width="700.00" height="22" fill="#167c5a"/><text x="1042" y="731" class="value">100.0%  1/1</text><text x="318" y="766" text-anchor="end" class="label">actionlint-action-pinning-lint / ello-ds</text><rect x="330" y="750" width="700" height="22" fill="#ece8df"/><rect x="330" y="750" width="700.00" height="22" fill="#167c5a"/><text x="1042" y="765" class="value">100.0%  1/1</text><text x="318" y="800" text-anchor="end" class="label">abs-stepped-slices / ello-ds</text><rect x="330" y="784" width="700" height="22" fill="#ece8df"/><rect x="330" y="784" width="700.00" height="22" fill="#167c5a"/><text x="1042" y="799" class="value">100.0%  1/1</text><text x="318" y="834" text-anchor="end" class="label">yaegi-go-embed-directives / ello-ds</text><rect x="330" y="818" width="700" height="22" fill="#ece8df"/><rect x="330" y="818" width="700.00" height="22" fill="#167c5a"/><text x="1042" y="833" class="value">100.0%  1/1</text><text x="318" y="868" text-anchor="end" class="label">dasel-html-document-format / ello-ds</text><rect x="330" y="852" width="700" height="22" fill="#ece8df"/><rect x="330" y="852" width="0.00" height="22" fill="#167c5a"/><text x="1042" y="867" class="value">0.0%  0/1</text><text x="318" y="902" text-anchor="end" class="label">cattrs-partial-structuring-recovery / ello-ds</text><rect x="330" y="886" width="700" height="22" fill="#ece8df"/><rect x="330" y="886" width="700.00" height="22" fill="#167c5a"/><text x="1042" y="901" class="value">100.0%  1/1</text><text x="318" y="936" text-anchor="end" class="label">numba-stencil-boundary-modes / ello-ds</text><rect x="330" y="920" width="700" height="22" fill="#ece8df"/><rect x="330" y="920" width="0.00" height="22" fill="#167c5a"/><text x="1042" y="935" class="value">0.0%  0/1</text><text x="318" y="970" text-anchor="end" class="label">bandit-incremental-cache-control / ello-ds</text><rect x="330" y="954" width="700" height="22" fill="#ece8df"/><rect x="330" y="954" width="0.00" height="22" fill="#167c5a"/><text x="1042" y="969" class="value">0.0%  0/1</text><text x="318" y="1004" text-anchor="end" class="label">httpx-streaming-json-iteration / ello-ds</text><rect x="330" y="988" width="700" height="22" fill="#ece8df"/><rect x="330" y="988" width="0.00" height="22" fill="#167c5a"/><text x="1042" y="1003" class="value">0.0%  0/1</text><text x="318" y="1038" text-anchor="end" class="label">happy-dom-abort-pending-body-reads / ello-ds</text><rect x="330" y="1022" width="700" height="22" fill="#ece8df"/><rect x="330" y="1022" width="700.00" height="22" fill="#167c5a"/><text x="1042" y="1037" class="value">100.0%  1/1</text><text x="318" y="1072" text-anchor="end" class="label">dynamodb-toolbox-conditional-attribute-requirements / ello-ds</text><rect x="330" y="1056" width="700" height="22" fill="#ece8df"/><rect x="330" y="1056" width="700.00" height="22" fill="#167c5a"/><text x="1042" y="1071" class="value">100.0%  1/1</text><text x="318" y="1106" text-anchor="end" class="label">awilix-async-container-initialization / ello-ds</text><rect x="330" y="1090" width="700" height="22" fill="#ece8df"/><rect x="330" y="1090" width="700.00" height="22" fill="#167c5a"/><text x="1042" y="1105" class="value">100.0%  1/1</text><text x="318" y="1140" text-anchor="end" class="label">quill-shared-toolbar-focus / ello-ds</text><rect x="330" y="1124" width="700" height="22" fill="#ece8df"/><rect x="330" y="1124" width="0.00" height="22" fill="#167c5a"/><text x="1042" y="1139" class="value">0.0%  0/1</text><text x="318" y="1174" text-anchor="end" class="label">wasmi-trap-coredumps / ello-ds</text><rect x="330" y="1158" width="700" height="22" fill="#ece8df"/><rect x="330" y="1158" width="0.00" height="22" fill="#167c5a"/><text x="1042" y="1173" class="value">0.0%  0/1</text><text x="318" y="1208" text-anchor="end" class="label">fd-deterministic-multi-key-sorting / ello-ds</text><rect x="330" y="1192" width="700" height="22" fill="#ece8df"/><rect x="330" y="1192" width="700.00" height="22" fill="#167c5a"/><text x="1042" y="1207" class="value">100.0%  1/1</text><text x="318" y="1242" text-anchor="end" class="label">boa-hierarchical-evaluation-cancellation / ello-ds</text><rect x="330" y="1226" width="700" height="22" fill="#ece8df"/><rect x="330" y="1226" width="700.00" height="22" fill="#167c5a"/><text x="1042" y="1241" class="value">100.0%  1/1</text><text x="318" y="1276" text-anchor="end" class="label">pest-character-class-coalescing / ello-ds</text><rect x="330" y="1260" width="700" height="22" fill="#ece8df"/><rect x="330" y="1260" width="0.00" height="22" fill="#167c5a"/><text x="1042" y="1275" class="value">0.0%  0/1</text><text x="318" y="1310" text-anchor="end" class="label">yjs-map-conflict-detection / ello-ds</text><rect x="330" y="1294" width="700" height="22" fill="#ece8df"/><rect x="330" y="1294" width="700.00" height="22" fill="#167c5a"/><text x="1042" y="1309" class="value">100.0%  1/1</text><text x="318" y="1344" text-anchor="end" class="label">testem-per-launcher-reports / ello-ds</text><rect x="330" y="1328" width="700" height="22" fill="#ece8df"/><rect x="330" y="1328" width="700.00" height="22" fill="#167c5a"/><text x="1042" y="1343" class="value">100.0%  1/1</text><text x="318" y="1378" text-anchor="end" class="label">csstree-shorthand-expansion-compression / ello-ds</text><rect x="330" y="1362" width="700" height="22" fill="#ece8df"/><rect x="330" y="1362" width="700.00" height="22" fill="#167c5a"/><text x="1042" y="1377" class="value">100.0%  1/1</text><text x="318" y="1412" text-anchor="end" class="label">katex-multicolumn-array-spans / ello-ds</text><rect x="330" y="1396" width="700" height="22" fill="#ece8df"/><rect x="330" y="1396" width="700.00" height="22" fill="#167c5a"/><text x="1042" y="1411" class="value">100.0%  1/1</text><text x="318" y="1446" text-anchor="end" class="label">actionlint-action-pinning-lint / claude-code</text><rect x="330" y="1430" width="700" height="22" fill="#ece8df"/><rect x="330" y="1430" width="700.00" height="22" fill="#167c5a"/><text x="1042" y="1445" class="value">100.0%  1/1</text><text x="318" y="1480" text-anchor="end" class="label">abs-stepped-slices / claude-code</text><rect x="330" y="1464" width="700" height="22" fill="#ece8df"/><rect x="330" y="1464" width="700.00" height="22" fill="#167c5a"/><text x="1042" y="1479" class="value">100.0%  1/1</text><text x="318" y="1514" text-anchor="end" class="label">yaegi-go-embed-directives / claude-code</text><rect x="330" y="1498" width="700" height="22" fill="#ece8df"/><rect x="330" y="1498" width="0.00" height="22" fill="#167c5a"/><text x="1042" y="1513" class="value">0.0%  0/1</text><text x="318" y="1548" text-anchor="end" class="label">dasel-html-document-format / claude-code</text><rect x="330" y="1532" width="700" height="22" fill="#ece8df"/><rect x="330" y="1532" width="0.00" height="22" fill="#167c5a"/><text x="1042" y="1547" class="value">0.0%  0/1</text><text x="318" y="1582" text-anchor="end" class="label">cattrs-partial-structuring-recovery / claude-code</text><rect x="330" y="1566" width="700" height="22" fill="#ece8df"/><rect x="330" y="1566" width="700.00" height="22" fill="#167c5a"/><text x="1042" y="1581" class="value">100.0%  1/1</text><text x="318" y="1616" text-anchor="end" class="label">numba-stencil-boundary-modes / claude-code</text><rect x="330" y="1600" width="700" height="22" fill="#ece8df"/><rect x="330" y="1600" width="0.00" height="22" fill="#167c5a"/><text x="1042" y="1615" class="value">0.0%  0/1</text><text x="318" y="1650" text-anchor="end" class="label">bandit-incremental-cache-control / claude-code</text><rect x="330" y="1634" width="700" height="22" fill="#ece8df"/><rect x="330" y="1634" width="0.00" height="22" fill="#167c5a"/><text x="1042" y="1649" class="value">0.0%  0/1</text><text x="318" y="1684" text-anchor="end" class="label">httpx-streaming-json-iteration / claude-code</text><rect x="330" y="1668" width="700" height="22" fill="#ece8df"/><rect x="330" y="1668" width="700.00" height="22" fill="#167c5a"/><text x="1042" y="1683" class="value">100.0%  1/1</text><text x="318" y="1718" text-anchor="end" class="label">happy-dom-abort-pending-body-reads / claude-code</text><rect x="330" y="1702" width="700" height="22" fill="#ece8df"/><rect x="330" y="1702" width="0.00" height="22" fill="#167c5a"/><text x="1042" y="1717" class="value">0.0%  0/1</text><text x="318" y="1752" text-anchor="end" class="label">dynamodb-toolbox-conditional-attribute-requirements / claude-code</text><rect x="330" y="1736" width="700" height="22" fill="#ece8df"/><rect x="330" y="1736" width="700.00" height="22" fill="#167c5a"/><text x="1042" y="1751" class="value">100.0%  1/1</text><text x="318" y="1786" text-anchor="end" class="label">awilix-async-container-initialization / claude-code</text><rect x="330" y="1770" width="700" height="22" fill="#ece8df"/><rect x="330" y="1770" width="0.00" height="22" fill="#167c5a"/><text x="1042" y="1785" class="value">0.0%  0/1</text><text x="318" y="1820" text-anchor="end" class="label">quill-shared-toolbar-focus / claude-code</text><rect x="330" y="1804" width="700" height="22" fill="#ece8df"/><rect x="330" y="1804" width="0.00" height="22" fill="#167c5a"/><text x="1042" y="1819" class="value">0.0%  0/1</text><text x="318" y="1854" text-anchor="end" class="label">wasmi-trap-coredumps / claude-code</text><rect x="330" y="1838" width="700" height="22" fill="#ece8df"/><rect x="330" y="1838" width="700.00" height="22" fill="#167c5a"/><text x="1042" y="1853" class="value">100.0%  1/1</text><text x="318" y="1888" text-anchor="end" class="label">fd-deterministic-multi-key-sorting / claude-code</text><rect x="330" y="1872" width="700" height="22" fill="#ece8df"/><rect x="330" y="1872" width="700.00" height="22" fill="#167c5a"/><text x="1042" y="1887" class="value">100.0%  1/1</text><text x="318" y="1922" text-anchor="end" class="label">boa-hierarchical-evaluation-cancellation / claude-code</text><rect x="330" y="1906" width="700" height="22" fill="#ece8df"/><rect x="330" y="1906" width="0.00" height="22" fill="#167c5a"/><text x="1042" y="1921" class="value">0.0%  0/1</text><text x="318" y="1956" text-anchor="end" class="label">pest-character-class-coalescing / claude-code</text><rect x="330" y="1940" width="700" height="22" fill="#ece8df"/><rect x="330" y="1940" width="0.00" height="22" fill="#167c5a"/><text x="1042" y="1955" class="value">0.0%  0/1</text><text x="318" y="1990" text-anchor="end" class="label">yjs-map-conflict-detection / claude-code</text><rect x="330" y="1974" width="700" height="22" fill="#ece8df"/><rect x="330" y="1974" width="700.00" height="22" fill="#167c5a"/><text x="1042" y="1989" class="value">100.0%  1/1</text><text x="318" y="2024" text-anchor="end" class="label">testem-per-launcher-reports / claude-code</text><rect x="330" y="2008" width="700" height="22" fill="#ece8df"/><rect x="330" y="2008" width="0.00" height="22" fill="#167c5a"/><text x="1042" y="2023" class="value">0.0%  0/1</text><text x="318" y="2058" text-anchor="end" class="label">csstree-shorthand-expansion-compression / claude-code</text><rect x="330" y="2042" width="700" height="22" fill="#ece8df"/><rect x="330" y="2042" width="700.00" height="22" fill="#167c5a"/><text x="1042" y="2057" class="value">100.0%  1/1</text><text x="318" y="2092" text-anchor="end" class="label">katex-multicolumn-array-spans / claude-code</text><rect x="330" y="2076" width="700" height="22" fill="#ece8df"/><rect x="330" y="2076" width="0.00" height="22" fill="#167c5a"/><text x="1042" y="2091" class="value">0.0%  0/1</text></svg>
