<svg xmlns="http://www.w3.org/2000/svg" width="1200" height="280" viewBox="0 0 1200 280"><style>text{font-family:ui-monospace,SFMono-Regular,Menlo,monospace;letter-spacing:0}.title{font:700 22px system-ui,sans-serif;fill:#20262d}.label{font-size:12px;fill:#20262d}.value{font-size:11px;fill:#58616b}</style><rect width="100%" height="100%" fill="#fff"/><text x="24" y="36" class="title">Median elapsed time</text><text x="318" y="86" text-anchor="end" class="label">ello-ds-rapid</text><rect x="330" y="70" width="700" height="22" fill="#ece8df"/><rect x="330" y="70" width="539.78" height="22" fill="#8d5b26"/><text x="1042" y="85" class="value">1.3K  median seconds, 103 runs</text><text x="318" y="120" text-anchor="end" class="label">ello-ds-rapid-sa</text><rect x="330" y="104" width="700" height="22" fill="#ece8df"/><rect x="330" y="104" width="514.12" height="22" fill="#8d5b26"/><text x="1042" y="119" class="value">1.2K  median seconds, 102 runs</text><text x="318" y="154" text-anchor="end" class="label">ello-ds</text><rect x="330" y="138" width="700" height="22" fill="#ece8df"/><rect x="330" y="138" width="620.91" height="22" fill="#8d5b26"/><text x="1042" y="153" class="value">1.5K  median seconds, 102 runs</text><text x="318" y="188" text-anchor="end" class="label">ello-ds-sa</text><rect x="330" y="172" width="700" height="22" fill="#ece8df"/><rect x="330" y="172" width="614.45" height="22" fill="#8d5b26"/><text x="1042" y="187" class="value">1.5K  median seconds, 102 runs</text><text x="318" y="222" text-anchor="end" class="label">claude-code</text><rect x="330" y="206" width="700" height="22" fill="#ece8df"/><rect x="330" y="206" width="700.00" height="22" fill="#8d5b26"/><text x="1042" y="221" class="value">1.7K  median seconds, 97 runs</text></svg>
