<svg xmlns="http://www.w3.org/2000/svg" width="1200" height="790" viewBox="0 0 1200 790"><style>text{font-family:ui-monospace,SFMono-Regular,Menlo,monospace;letter-spacing:0}.title{font:700 22px system-ui,sans-serif;fill:#20262d}.label{font-size:12px;fill:#20262d}.value{font-size:11px;fill:#58616b}</style><rect width="100%" height="100%" fill="#fff"/><text x="24" y="36" class="title">Median token accounting by agent</text><text x="318" y="86" text-anchor="end" class="label">ello-ds-rapid non-cache input</text><rect x="330" y="70" width="700" height="22" fill="#ece8df"/><rect x="330" y="70" width="3.45" height="22" fill="#2166ac"/><text x="1042" y="85" class="value">119.1K  median tokens</text><text x="318" y="120" text-anchor="end" class="label">ello-ds-rapid cache read</text><rect x="330" y="104" width="700" height="22" fill="#ece8df"/><rect x="330" y="104" width="431.19" height="22" fill="#167c5a"/><text x="1042" y="119" class="value">14.88M  median tokens</text><text x="318" y="154" text-anchor="end" class="label">ello-ds-rapid cache write</text><rect x="330" y="138" width="700" height="22" fill="#ece8df"/><rect x="330" y="138" width="0.00" height="22" fill="#8d5b26"/><text x="1042" y="153" class="value">0.0  median tokens</text><text x="318" y="188" text-anchor="end" class="label">ello-ds-rapid output</text><rect x="330" y="172" width="700" height="22" fill="#ece8df"/><rect x="330" y="172" width="3.37" height="22" fill="#b2182b"/><text x="1042" y="187" class="value">116.2K  median tokens</text><text x="318" y="222" text-anchor="end" class="label">ello-ds-rapid-sa non-cache input</text><rect x="330" y="206" width="700" height="22" fill="#ece8df"/><rect x="330" y="206" width="3.27" height="22" fill="#2166ac"/><text x="1042" y="221" class="value">112.8K  median tokens</text><text x="318" y="256" text-anchor="end" class="label">ello-ds-rapid-sa cache read</text><rect x="330" y="240" width="700" height="22" fill="#ece8df"/><rect x="330" y="240" width="370.19" height="22" fill="#167c5a"/><text x="1042" y="255" class="value">12.78M  median tokens</text><text x="318" y="290" text-anchor="end" class="label">ello-ds-rapid-sa cache write</text><rect x="330" y="274" width="700" height="22" fill="#ece8df"/><rect x="330" y="274" width="0.00" height="22" fill="#8d5b26"/><text x="1042" y="289" class="value">0.0  median tokens</text><text x="318" y="324" text-anchor="end" class="label">ello-ds-rapid-sa output</text><rect x="330" y="308" width="700" height="22" fill="#ece8df"/><rect x="330" y="308" width="3.44" height="22" fill="#b2182b"/><text x="1042" y="323" class="value">118.6K  median tokens</text><text x="318" y="358" text-anchor="end" class="label">ello-ds non-cache input</text><rect x="330" y="342" width="700" height="22" fill="#ece8df"/><rect x="330" y="342" width="3.78" height="22" fill="#2166ac"/><text x="1042" y="357" class="value">130.4K  median tokens</text><text x="318" y="392" text-anchor="end" class="label">ello-ds cache read</text><rect x="330" y="376" width="700" height="22" fill="#ece8df"/><rect x="330" y="376" width="607.48" height="22" fill="#167c5a"/><text x="1042" y="391" class="value">20.97M  median tokens</text><text x="318" y="426" text-anchor="end" class="label">ello-ds cache write</text><rect x="330" y="410" width="700" height="22" fill="#ece8df"/><rect x="330" y="410" width="0.00" height="22" fill="#8d5b26"/><text x="1042" y="425" class="value">0.0  median tokens</text><text x="318" y="460" text-anchor="end" class="label">ello-ds output</text><rect x="330" y="444" width="700" height="22" fill="#ece8df"/><rect x="330" y="444" width="3.73" height="22" fill="#b2182b"/><text x="1042" y="459" class="value">128.8K  median tokens</text><text x="318" y="494" text-anchor="end" class="label">ello-ds-sa non-cache input</text><rect x="330" y="478" width="700" height="22" fill="#ece8df"/><rect x="330" y="478" width="3.64" height="22" fill="#2166ac"/><text x="1042" y="493" class="value">125.5K  median tokens</text><text x="318" y="528" text-anchor="end" class="label">ello-ds-sa cache read</text><rect x="330" y="512" width="700" height="22" fill="#ece8df"/><rect x="330" y="512" width="575.48" height="22" fill="#167c5a"/><text x="1042" y="527" class="value">19.86M  median tokens</text><text x="318" y="562" text-anchor="end" class="label">ello-ds-sa cache write</text><rect x="330" y="546" width="700" height="22" fill="#ece8df"/><rect x="330" y="546" width="0.00" height="22" fill="#8d5b26"/><text x="1042" y="561" class="value">0.0  median tokens</text><text x="318" y="596" text-anchor="end" class="label">ello-ds-sa output</text><rect x="330" y="580" width="700" height="22" fill="#ece8df"/><rect x="330" y="580" width="3.66" height="22" fill="#b2182b"/><text x="1042" y="595" class="value">126.4K  median tokens</text><text x="318" y="630" text-anchor="end" class="label">claude-code non-cache input</text><rect x="330" y="614" width="700" height="22" fill="#ece8df"/><rect x="330" y="614" width="3.66" height="22" fill="#2166ac"/><text x="1042" y="629" class="value">126.3K  median tokens</text><text x="318" y="664" text-anchor="end" class="label">claude-code cache read</text><rect x="330" y="648" width="700" height="22" fill="#ece8df"/><rect x="330" y="648" width="700.00" height="22" fill="#167c5a"/><text x="1042" y="663" class="value">24.16M  median tokens</text><text x="318" y="698" text-anchor="end" class="label">claude-code cache write</text><rect x="330" y="682" width="700" height="22" fill="#ece8df"/><rect x="330" y="682" width="0.00" height="22" fill="#8d5b26"/><text x="1042" y="697" class="value">0.0  median tokens</text><text x="318" y="732" text-anchor="end" class="label">claude-code output</text><rect x="330" y="716" width="700" height="22" fill="#ece8df"/><rect x="330" y="716" width="4.06" height="22" fill="#b2182b"/><text x="1042" y="731" class="value">140.3K  median tokens</text></svg>
